HIERARCHY
ROOT Hips
{
	OFFSET	0.00	0.00	0.00
	CHANNELS 6 Xposition Yposition Zposition Zrotation Xrotation Yrotation
	JOINT LeftUpLeg
	{
		OFFSET	 0.126116	-0.014019	-0.065224
		CHANNELS 3 Zrotation Xrotation Yrotation
		JOINT LeftLeg
		{
			OFFSET	 0.000000	 0.000000	 0.569914
			CHANNELS 3 Zrotation Xrotation Yrotation
			JOINT LeftFoot
			{
				OFFSET	 0.000000	 0.000000	 0.544423
				CHANNELS 3 Zrotation Xrotation Yrotation
				JOINT LeftToeBase
				{
					OFFSET	 0.000000	 0.000000	 0.207117
					CHANNELS 3 Zrotation Xrotation Yrotation
					End Site
					{
						OFFSET	 0.000000	 0.000000	 0.207117
					}
				}
			}
		}
	}
	JOINT RightUpLeg
	{
		OFFSET	-0.124023	-0.008373	-0.065224
		CHANNELS 3 Zrotation Xrotation Yrotation
		JOINT RightLeg
		{
			OFFSET	 0.000000	 0.000000	 0.570047
			CHANNELS 3 Zrotation Xrotation Yrotation
			JOINT RightFoot
			{
				OFFSET	 0.000000	 0.000000	 0.544354
				CHANNELS 3 Zrotation Xrotation Yrotation
				JOINT RightToeBase
				{
					OFFSET	 0.000000	 0.000000	 0.207540
					CHANNELS 3 Zrotation Xrotation Yrotation
					End Site
					{
						OFFSET	 0.000000	 0.000000	 0.207540
					}
				}
			}
		}
	}
	JOINT Spine
	{
		OFFSET	 0.000184	-0.007763	 0.117403
		CHANNELS 3 Zrotation Xrotation Yrotation
		JOINT Spine1
		{
			OFFSET	 0.000000	 0.000000	 0.137269
			CHANNELS 3 Zrotation Xrotation Yrotation
			JOINT Spine2
			{
				OFFSET	 0.000000	 0.000000	 0.156879
				CHANNELS 3 Zrotation Xrotation Yrotation
				JOINT LeftShoulder
				{
					OFFSET	 0.080501	-0.002496	 0.160144
					CHANNELS 3 Zrotation Xrotation Yrotation
					JOINT LeftArm
					{
						OFFSET	 0.000000	 0.000000	 0.164363
						CHANNELS 3 Zrotation Xrotation Yrotation
						JOINT LeftForeArm
						{
							OFFSET	 0.000000	 0.000000	 0.364576
							CHANNELS 3 Zrotation Xrotation Yrotation
							JOINT LeftHand
							{
								OFFSET	 0.000000	 0.000000	 0.360812
								CHANNELS 3 Zrotation Xrotation Yrotation
								JOINT LeftHandIndex1
								{
									OFFSET	 0.000000	 0.000000	 0.086006
									CHANNELS 3 Zrotation Xrotation Yrotation
									JOINT LeftHandIndex2
									{
										OFFSET	 0.000000	 0.000000	 0.047236
										CHANNELS 3 Zrotation Xrotation Yrotation
										JOINT LeftHandIndex3
										{
											OFFSET	-0.004284	-0.000551	 0.038166
											CHANNELS 3 Zrotation Xrotation Yrotation
											End Site
											{
												OFFSET	-0.004284	-0.000551	 0.038166
											}
										}
									}
								}
							}
						}
					}
				}
				JOINT Neck
				{
					OFFSET	 0.000000	 0.000000	 0.176489
					CHANNELS 3 Zrotation Xrotation Yrotation
					JOINT Head
					{
						OFFSET	 0.000000	-0.001747	 0.077940
						CHANNELS 3 Zrotation Xrotation Yrotation
						End Site
						{
							OFFSET	 0.000000	-0.001747	 0.077940
						}
					}
				}
				JOINT RightShoulder
				{
					OFFSET	-0.080363	 0.000306	 0.159706
					CHANNELS 3 Zrotation Xrotation Yrotation
					JOINT RightArm
					{
						OFFSET	 0.000000	 0.000000	 0.164196
						CHANNELS 3 Zrotation Xrotation Yrotation
						JOINT RightForeArm
						{
							OFFSET	 0.000000	 0.000000	 0.365611
							CHANNELS 3 Zrotation Xrotation Yrotation
							JOINT RightHand
							{
								OFFSET	 0.000000	 0.000000	 0.360648
								CHANNELS 3 Zrotation Xrotation Yrotation
								JOINT RightHandIndex1
								{
									OFFSET	 0.000000	 0.000000	 0.069977
									CHANNELS 3 Zrotation Xrotation Yrotation
									JOINT RightHandIndex2
									{
										OFFSET	 0.000000	 0.000000	 0.052305
										CHANNELS 3 Zrotation Xrotation Yrotation
										JOINT RightHandIndex3
										{
											OFFSET	 0.009002	-0.000782	 0.042196
											CHANNELS 3 Zrotation Xrotation Yrotation
											End Site
											{
												OFFSET	 0.009002	-0.000782	 0.042196
											}
										}
									}
								}
							}
						}
					}
				}
			}
		}
	}
}
MOTION
Frames:    4
Frame Time: 0.03333334
-11.382890	-34.752160	 0.859889	-38.237840	 9.780970	 3.141438	 5.681817	-20.831380	 175.326000	-4.128423	-36.681240	-0.908377	-1.111853	 83.746830	-0.414362	-2.333724	 36.455970	-0.184401	-2.122493	-22.721990	-178.939100	-1.927172	-40.660110	-0.984762	-1.443472	 87.455700	 0.662495	 2.395558	 25.489900	-0.061565	-5.039259	 5.274889	-1.476766	-8.297830	 3.886603	-2.112753	-10.269230	 1.259467	-0.568105	-101.820600	 88.637720	-167.278000	 58.080240	 69.130900	-67.664310	-5.585066	-4.424173	-18.532460	 6.420816	-16.516530	-5.537429	-1.731371	-11.412970	 7.778278	-5.213516	-0.193813	 3.566525	-1.378229	 35.397820	-2.634230	 0.638231	 1.326806	 0.629268	-2.295849	 2.622670	 0.350886	 96.438060	 87.877270	 170.446100	-53.927240	 77.124820	 66.700350	-1.887460	-13.408430	 23.668040	-24.331470	-17.315780	 10.009960	-7.680634	-4.174455	-37.782470	 5.070815	-0.697434	-9.399699	-2.350882	 35.473990	 5.254307
-11.383670	-34.753660	 0.854306	-38.340600	 9.501453	 3.102947	 5.633521	-20.707840	 175.448900	-4.214326	-36.268250	-0.958217	-1.154398	 83.500020	-0.463281	-2.333700	 36.459060	-0.184475	-2.036627	-22.696740	-178.937800	-2.005239	-40.383940	-0.988042	-1.500869	 87.056370	 0.691921	 2.393628	 26.085140	-0.049096	-5.021169	 5.344935	-1.469785	-8.259857	 3.832855	-2.068687	-10.225490	 1.227110	-0.568560	-101.579400	 88.593890	-167.486800	 54.794420	 68.107210	-64.758160	-4.939550	-4.325696	-17.934830	 6.444960	-16.525070	-5.538912	-1.844481	-11.071470	 7.541534	-5.213516	-0.193813	 3.566525	-1.378229	 35.397820	-2.634230	 0.689916	 1.272739	 0.607413	-2.269315	 2.642061	 0.483223	 96.572520	 87.888630	 170.273000	-50.488330	 75.806810	 63.870050	-2.001920	-12.777350	 23.294860	-23.430690	-17.318880	 10.013110	-7.434007	-4.178987	-37.147790	 5.070815	-0.697434	-9.399699	-2.350882	 35.473990	 5.254307
-11.383160	-34.752300	 0.859543	-38.379630	 9.369693	 3.079009	 5.572125	-20.529370	 175.423000	-4.307615	-36.390750	-1.057110	-1.215201	 83.545180	-0.530612	-2.331904	 36.660820	-0.189476	-1.911858	-22.467460	-178.943900	-2.013514	-40.316910	-0.921084	-1.527279	 86.830770	 0.785745	 2.393836	 26.021070	-0.050443	-5.059462	 5.408633	-1.467589	-8.250089	 3.920137	-2.053537	-10.177930	 1.279469	-0.561251	-101.453900	 88.594030	-167.647100	 54.367780	 68.147320	-64.226510	-4.855814	-4.292182	-17.591200	 6.525599	-16.543090	-5.544945	-2.101920	-11.262570	 6.925351	-5.213516	-0.193813	 3.566525	-1.378229	 35.397820	-2.634230	 0.737723	 1.365462	 0.652062	-2.216575	 2.691843	 0.545330	 96.628080	 87.903240	 170.218400	-51.059100	 75.715450	 64.411610	-2.158154	-12.738740	 23.216970	-23.419010	-17.327160	 10.022310	-7.411663	-4.226867	-37.054180	 5.070815	-0.697434	-9.399699	-2.350882	 35.473990	 5.254307
-11.384940	-34.753220	 0.859105	-38.314610	 9.187231	 3.022546	 5.501389	-20.336100	 175.398300	-4.326213	-36.473130	-1.115001	-1.255611	 83.630310	-0.566878	-2.329868	 36.885030	-0.195069	-1.797434	-22.000020	-178.967800	-1.961492	-39.785820	-0.826416	-1.518699	 86.546970	 0.874645	 2.394818	 25.724730	-0.056656	-5.154394	 5.432576	-1.460328	-8.273729	 4.046247	-2.038052	-10.140820	 1.389115	-0.549495	-101.244800	 88.603390	-167.933500	 53.863970	 68.296740	-63.603080	-4.830703	-4.257957	-17.180090	 6.640697	-16.572650	-5.556261	-2.702213	-11.521760	 5.511406	-5.213516	-0.193813	 3.566525	-1.378229	 35.397820	-2.634230	 0.766857	 1.449467	 0.693067	-2.153666	 2.874719	 0.611264	 96.721230	 87.924440	 170.122100	-51.646160	 75.658850	 64.899480	-2.300311	-12.694280	 23.145910	-23.381880	-17.341220	 10.039190	-7.372160	-4.248107	-36.936860	 5.070815	-0.697434	-9.399699	-2.350882	 35.473990	 5.254307
